<mxfile host="app.diagrams.net" modified="2023-03-29T02:10:16.634Z" agent="Mozilla/5.0 (Windows NT 10.0; Win64; x64) AppleWebKit/537.36 (KHTML, like Gecko) Chrome/111.0.0.0 Safari/537.36" etag="Nv9aPlgH5G2gRum9iBR_" version="21.1.1" type="device">
  <diagram id="C5RBs43oDa-KdzZeNtuy" name="Page-1">
    <mxGraphModel dx="1434" dy="796" grid="1" gridSize="10" guides="1" tooltips="1" connect="1" arrows="1" fold="1" page="1" pageScale="1" pageWidth="827" pageHeight="1169" math="0" shadow="0">
      <root>
        <mxCell id="WIyWlLk6GJQsqaUBKTNV-0" />
        <mxCell id="WIyWlLk6GJQsqaUBKTNV-1" parent="WIyWlLk6GJQsqaUBKTNV-0" />
        <mxCell id="RcguhcrNimA1yDB3qQDc-7" value="" style="edgeStyle=orthogonalEdgeStyle;rounded=0;orthogonalLoop=1;jettySize=auto;html=1;" edge="1" parent="WIyWlLk6GJQsqaUBKTNV-1" source="WIyWlLk6GJQsqaUBKTNV-3" target="RcguhcrNimA1yDB3qQDc-6">
          <mxGeometry relative="1" as="geometry" />
        </mxCell>
        <mxCell id="WIyWlLk6GJQsqaUBKTNV-3" value="Start" style="rounded=1;whiteSpace=wrap;html=1;fontSize=12;glass=0;strokeWidth=1;shadow=0;" parent="WIyWlLk6GJQsqaUBKTNV-1" vertex="1">
          <mxGeometry x="160" y="140" width="120" height="40" as="geometry" />
        </mxCell>
        <mxCell id="RcguhcrNimA1yDB3qQDc-9" value="" style="edgeStyle=orthogonalEdgeStyle;rounded=0;orthogonalLoop=1;jettySize=auto;html=1;" edge="1" parent="WIyWlLk6GJQsqaUBKTNV-1" source="RcguhcrNimA1yDB3qQDc-6" target="RcguhcrNimA1yDB3qQDc-8">
          <mxGeometry relative="1" as="geometry" />
        </mxCell>
        <mxCell id="RcguhcrNimA1yDB3qQDc-6" value="Initialization Library, Variable, Class" style="rounded=0;whiteSpace=wrap;html=1;" vertex="1" parent="WIyWlLk6GJQsqaUBKTNV-1">
          <mxGeometry x="160" y="210" width="120" height="60" as="geometry" />
        </mxCell>
        <mxCell id="RcguhcrNimA1yDB3qQDc-11" value="" style="edgeStyle=orthogonalEdgeStyle;rounded=0;orthogonalLoop=1;jettySize=auto;html=1;" edge="1" parent="WIyWlLk6GJQsqaUBKTNV-1" source="RcguhcrNimA1yDB3qQDc-8" target="RcguhcrNimA1yDB3qQDc-10">
          <mxGeometry relative="1" as="geometry" />
        </mxCell>
        <mxCell id="RcguhcrNimA1yDB3qQDc-8" value="" style="ellipse;whiteSpace=wrap;html=1;rounded=0;" vertex="1" parent="WIyWlLk6GJQsqaUBKTNV-1">
          <mxGeometry x="205" y="300" width="30" height="30" as="geometry" />
        </mxCell>
        <mxCell id="RcguhcrNimA1yDB3qQDc-15" value="" style="edgeStyle=orthogonalEdgeStyle;rounded=0;orthogonalLoop=1;jettySize=auto;html=1;" edge="1" parent="WIyWlLk6GJQsqaUBKTNV-1" source="RcguhcrNimA1yDB3qQDc-10" target="RcguhcrNimA1yDB3qQDc-14">
          <mxGeometry relative="1" as="geometry" />
        </mxCell>
        <mxCell id="RcguhcrNimA1yDB3qQDc-10" value="Connect to access point" style="whiteSpace=wrap;html=1;rounded=0;" vertex="1" parent="WIyWlLk6GJQsqaUBKTNV-1">
          <mxGeometry x="160" y="360" width="120" height="60" as="geometry" />
        </mxCell>
        <mxCell id="RcguhcrNimA1yDB3qQDc-21" value="" style="edgeStyle=orthogonalEdgeStyle;rounded=0;orthogonalLoop=1;jettySize=auto;html=1;" edge="1" parent="WIyWlLk6GJQsqaUBKTNV-1" source="RcguhcrNimA1yDB3qQDc-14" target="RcguhcrNimA1yDB3qQDc-20">
          <mxGeometry relative="1" as="geometry" />
        </mxCell>
        <mxCell id="RcguhcrNimA1yDB3qQDc-22" value="Yes" style="edgeLabel;html=1;align=center;verticalAlign=middle;resizable=0;points=[];" vertex="1" connectable="0" parent="RcguhcrNimA1yDB3qQDc-21">
          <mxGeometry x="-0.2444" y="1" relative="1" as="geometry">
            <mxPoint as="offset" />
          </mxGeometry>
        </mxCell>
        <mxCell id="RcguhcrNimA1yDB3qQDc-14" value="is Wifi connected?" style="rhombus;whiteSpace=wrap;html=1;rounded=0;" vertex="1" parent="WIyWlLk6GJQsqaUBKTNV-1">
          <mxGeometry x="180" y="450" width="80" height="80" as="geometry" />
        </mxCell>
        <mxCell id="RcguhcrNimA1yDB3qQDc-24" value="" style="edgeStyle=orthogonalEdgeStyle;rounded=0;orthogonalLoop=1;jettySize=auto;html=1;" edge="1" parent="WIyWlLk6GJQsqaUBKTNV-1" source="RcguhcrNimA1yDB3qQDc-20" target="RcguhcrNimA1yDB3qQDc-23">
          <mxGeometry relative="1" as="geometry" />
        </mxCell>
        <mxCell id="RcguhcrNimA1yDB3qQDc-20" value="Setting up webserver" style="whiteSpace=wrap;html=1;rounded=0;" vertex="1" parent="WIyWlLk6GJQsqaUBKTNV-1">
          <mxGeometry x="160" y="570" width="120" height="60" as="geometry" />
        </mxCell>
        <mxCell id="RcguhcrNimA1yDB3qQDc-32" value="" style="edgeStyle=orthogonalEdgeStyle;rounded=0;orthogonalLoop=1;jettySize=auto;html=1;" edge="1" parent="WIyWlLk6GJQsqaUBKTNV-1" source="RcguhcrNimA1yDB3qQDc-23" target="RcguhcrNimA1yDB3qQDc-31">
          <mxGeometry relative="1" as="geometry" />
        </mxCell>
        <mxCell id="RcguhcrNimA1yDB3qQDc-23" value="Data acquisition" style="whiteSpace=wrap;html=1;rounded=0;" vertex="1" parent="WIyWlLk6GJQsqaUBKTNV-1">
          <mxGeometry x="160" y="660" width="120" height="60" as="geometry" />
        </mxCell>
        <mxCell id="RcguhcrNimA1yDB3qQDc-31" value="End" style="rounded=1;whiteSpace=wrap;html=1;" vertex="1" parent="WIyWlLk6GJQsqaUBKTNV-1">
          <mxGeometry x="160" y="750" width="120" height="60" as="geometry" />
        </mxCell>
        <mxCell id="RcguhcrNimA1yDB3qQDc-33" value="" style="endArrow=classic;html=1;rounded=0;entryX=1;entryY=0.5;entryDx=0;entryDy=0;" edge="1" parent="WIyWlLk6GJQsqaUBKTNV-1" source="RcguhcrNimA1yDB3qQDc-14" target="RcguhcrNimA1yDB3qQDc-8">
          <mxGeometry width="50" height="50" relative="1" as="geometry">
            <mxPoint x="260" y="540" as="sourcePoint" />
            <mxPoint x="330.71067811865476" y="490" as="targetPoint" />
            <Array as="points">
              <mxPoint x="310" y="490" />
              <mxPoint x="310" y="315" />
            </Array>
          </mxGeometry>
        </mxCell>
        <mxCell id="RcguhcrNimA1yDB3qQDc-34" value="No" style="edgeLabel;html=1;align=center;verticalAlign=middle;resizable=0;points=[];" vertex="1" connectable="0" parent="RcguhcrNimA1yDB3qQDc-33">
          <mxGeometry x="-0.2133" y="-2" relative="1" as="geometry">
            <mxPoint as="offset" />
          </mxGeometry>
        </mxCell>
      </root>
    </mxGraphModel>
  </diagram>
</mxfile>
